<svg height="511pt" viewBox="-64 1 511 511.99938" width="511pt" xmlns="http://www.w3.org/2000/svg"><path d="m249.871094 282h-114.382813l-.339843-.109375 20.730468-65.890625h73.21875zm0 0" fill="#495b73"/><path d="m192.488281 77c22.089844 0 40 17.910156 40 40 0 22.074219-17.894531 40-40 40-22.144531 0-40-17.964844-40-40 0-22.089844 17.910157-40 40-40zm0 0" fill="#49bab6"/><path d="m338.019531 473.058594c-3.390625-6.777344-10.320312-11.058594-17.890625-11.058594h-255.28125c-7.566406 0-14.5 4.28125-17.886718 11.058594l-14.472657 28.941406h320zm0 0" fill="#495b73"/><path d="m192.488281 452c-5.519531 0-10 4.480469-10 10s4.480469 10 10 10 10-4.480469 10-10-4.480469-10-10-10zm0 0"/><path d="m44.429688 2.929688c-28.328126 28.328124-43.929688 65.996093-43.929688 106.058593s15.601562 77.734375 43.925781 106.070313c3.902344 3.90625 10.238281 3.910156 14.144531.003906s3.90625-10.238281 0-14.140625c-24.550781-24.5625-38.070312-57.210937-38.070312-91.933594 0-34.722656 13.519531-67.367187 38.070312-91.917969 3.90625-3.90625 3.90625-10.238281 0-14.144531-3.90625-3.902343-10.238281-3.902343-14.140624.003907zm0 0"/><path d="m72.75 31.25c-20.796875 20.796875-32.25 48.402344-32.25 77.738281 0 29.34375 11.453125 56.957031 32.25 77.753907 3.90625 3.902343 10.234375 3.902343 14.140625 0 3.90625-3.90625 3.90625-10.238282 0-14.144532-17.019531-17.019531-26.390625-39.609375-26.390625-63.609375 0-23.992187 9.371094-46.578125 26.390625-63.597656 3.902344-3.90625 3.90625-10.234375 0-14.140625-3.90625-3.902344-10.238281-3.90625-14.140625 0zm0 0"/><path d="m115.164062 59.519531c-3.902343-3.902343-10.234374-3.90625-14.140624-.003906-13.234376 13.222656-20.523438 30.792969-20.523438 49.472656 0 18.691407 7.289062 36.265625 20.523438 49.484375 3.902343 3.902344 10.234374 3.902344 14.140624-.003906 3.902344-3.90625 3.902344-10.238281-.003906-14.144531-9.453125-9.441407-14.660156-21.992188-14.660156-35.335938 0-13.335937 5.207031-25.882812 14.660156-35.324219 3.90625-3.902343 3.90625-10.234374.003906-14.144531zm0 0"/><path d="m340.550781 2.929688c-3.902343-3.90625-10.234375-3.90625-14.140625 0-3.90625 3.902343-3.90625 10.234374-.003906 14.140624 24.550781 24.5625 38.074219 57.207032 38.074219 91.921876 0 34.722656-13.523438 67.367187-38.074219 91.929687-3.902344 3.90625-3.902344 10.238281.003906 14.140625 3.902344 3.90625 10.238282 3.90625 14.140625 0 28.328125-28.339844 43.929688-66.007812 43.929688-106.070312 0-40.058594-15.601563-77.722657-43.929688-106.0625zm0 0"/><path d="m298.089844 172.597656c-3.90625 3.90625-3.90625 10.238282 0 14.144532 3.90625 3.902343 10.234375 3.902343 14.140625 0 20.796875-20.796876 32.25-48.410157 32.25-77.753907 0-29.335937-11.453125-56.945312-32.25-77.738281-3.90625-3.90625-10.238281-3.90625-14.140625 0-3.90625 3.90625-3.90625 10.234375 0 14.140625 17.015625 17.019531 26.390625 39.605469 26.390625 63.601563 0 23.996093-9.375 46.585937-26.390625 63.605468zm0 0"/><path d="m269.816406 158.46875c3.902344 3.90625 10.234375 3.910156 14.144532.007812 13.230468-13.226562 20.519531-30.796874 20.519531-49.484374 0-18.683594-7.289063-36.253907-20.519531-49.476563-3.90625-3.902344-10.238282-3.898437-14.144532.007813-3.902344 3.90625-3.898437 10.238281.003906 14.140624 9.453126 9.445313 14.660157 21.992188 14.660157 35.328126 0 13.339843-5.207031 25.890624-14.660157 35.335937-3.90625 3.902344-3.90625 10.234375-.003906 14.140625zm0 0"/><path d="m32.488281 512h320c3.464844 0 6.6875-1.796875 8.507813-4.742188 1.820312-2.949218 1.988281-6.628906.4375-9.730468l-14.46875-28.941406c-5.117188-10.230469-15.398438-16.585938-26.835938-16.585938h-6.300781c-40.566406-128.949219-51.898437-164.972656-92.53125-294.136719 13.097656-9.265625 21.191406-24.503906 21.191406-40.863281 0-27.570312-22.429687-50-50-50-27.570312 0-50 22.429688-50 50 0 16.359375 8.097657 31.597656 21.191407 40.863281-4.40625 14.015625-88.117188 280.121094-92.527344 294.136719h-6.304688c-11.433594 0-21.714844 6.355469-26.832031 16.585938l-14.46875 28.941406c-1.550781 3.101562-1.386719 6.78125.4375 9.730468 1.820313 2.945313 5.039063 4.742188 8.503906 4.742188zm109.960938-220h100.082031l5.433594 17.269531-55.472656 45.75-55.472657-45.75zm20.765625-66h58.554687l14.46875 46h-87.496093zm29.273437-59c3.527344 0 6.992188-.371094 10.375-1.085938l12.613281 40.085938h-45.972656l12.609375-40.085938c3.386719.714844 6.851563 1.085938 10.375 1.085938zm61.949219 162.851562 32.390625 102.96875-78.621094-64.839843zm-61.949219-242.851562c16.542969 0 30 13.457031 30 30 0 16.296875-13.214843 30-30 30-4.417969 0-8.675781-.941406-12.65625-2.792969v-.003906c-10.535156-4.902344-17.34375-15.582031-17.34375-27.203125 0-16.542969 13.460938-30 30-30zm-61.945312 242.851562 46.230469 38.128907-78.621094 64.839843zm-74.636719 147.679688c1.703125-3.410156 5.132812-5.53125 8.941406-5.53125h87.640625c5.523438 0 10-4.480469 10-10 0-5.523438-4.476562-10-10-10h-46.15625l86.15625-71.058594 86.160157 71.058594h-46.160157c-5.519531 0-10 4.476562-10 10 0 5.519531 4.480469 10 10 10h87.640625c3.8125 0 7.238282 2.121094 8.945313 5.53125l7.234375 14.46875h-287.640625zm0 0"/></svg>