<?xml version="1.0" encoding="iso-8859-1"?>
<!-- Generator: Adobe Illustrator 19.0.0, SVG Export Plug-In . SVG Version: 6.00 Build 0)  -->
<svg version="1.1" id="Capa_1" xmlns="http://www.w3.org/2000/svg" xmlns:xlink="http://www.w3.org/1999/xlink" x="0px" y="0px"
	 viewBox="0 0 512 512" style="enable-background:new 0 0 512 512;" xml:space="preserve">
<path style="fill:#EAF9FF;" d="M402,305.163h38.037c34.221,0,61.963-27.724,61.963-61.924c0-25.971-16.005-48.193-38.689-57.391
	c0.985-4.384,1.522-8.937,1.522-13.618c0-34.2-27.742-61.924-61.963-61.924c-2.227,0-4.423,0.13-6.59,0.359
	C374.69,51.913,318.24,10,252,10c-74.186,0-136.092,52.572-150.5,122.493c-1.666-0.096-3.341-0.16-5.031-0.16
	C48.714,132.334,10,171.023,10,218.748s38.714,86.414,86.469,86.414H110h292V305.163z"/>
<path style="fill:#A8E7FF;" d="M155.967,430V212.487c0-8.001,6.486-14.487,14.487-14.487H341.48c8.001,0,14.487,6.486,14.487,14.487
	v275.026c0,8.001-6.486,14.487-14.487,14.487H170.454c-8.001,0-14.487-6.486-14.487-14.487V430"/>
<rect x="155.97" y="256.13" style="fill:#FFFFFF;" width="200" height="191.87"/>
<path d="M474.403,180.037c0.286-2.601,0.43-5.209,0.43-7.808c0-39.632-32.24-71.881-71.884-71.924
	c-11.813-28.167-31.154-52.314-56.274-70.157C318.907,10.425,286.17,0,252,0c-37.892,0-74.836,13.25-104.027,37.31
	c-26.641,21.957-45.738,51.923-54.378,85.066C41.726,123.899,0,166.545,0,218.748c0,53.163,43.275,96.414,96.469,96.414H110
	c5.522,0,10-4.478,10-10s-4.478-10-10-10H96.469C54.304,295.162,20,260.883,20,218.748s34.304-76.415,76.469-76.415
	c1.322,0,2.78,0.047,4.458,0.143c4.96,0.283,9.366-3.106,10.367-7.965C124.966,68.159,184.142,20,252,20
	c59.997,0,114.207,37.821,134.893,94.114c1.581,4.301,5.896,6.975,10.438,6.496c1.909-0.202,3.772-0.304,5.539-0.304
	c28.653,0,51.964,23.293,51.964,51.924c0,3.805-0.431,7.649-1.278,11.427c-1.072,4.772,1.467,9.62,5.999,11.458
	c19.71,7.991,32.445,26.881,32.445,48.123c0,28.631-23.311,51.924-51.964,51.924H402c-5.522,0-10,4.478-10,10s4.478,10,10,10h38.036
	c39.681,0,71.964-32.265,71.964-71.924C512,216.54,497.48,192.526,474.403,180.037z"/>
<path d="M231.24,237h49.502c5.522,0,10-4.477,10-10s-4.478-10-10-10H231.24c-5.522,0-10,4.477-10,10S225.718,237,231.24,237z"/>
<path d="M341.546,188H170.52c-13.502,0-24.487,10.985-24.487,24.487v275.026c0,13.502,10.985,24.487,24.487,24.487h171.026
	c13.502,0,24.486-10.985,24.486-24.487V212.487C366.032,198.985,355.048,188,341.546,188z M166.032,266.127h180V438h-180
	L166.032,266.127L166.032,266.127z M170.52,208h171.026c2.474,0,4.486,2.013,4.486,4.487v33.64h-180v-33.64
	C166.032,210.013,168.045,208,170.52,208z M341.546,492H170.52c-2.475,0-4.487-2.013-4.487-4.487V458h180v29.513
	C346.032,489.987,344.02,492,341.546,492z"/>
<path d="M256.098,465h-0.13c-5.522,0-10,4.478-10,10s4.478,10,10,10h0.13c5.522,0,10-4.478,10-10S261.62,465,256.098,465z"/>
<path d="M102.352,472.217l-5.64,5.64V419c0-5.522-4.478-10-10-10s-10,4.478-10,10v58.857l-5.641-5.641
	c-3.906-3.904-10.236-3.904-14.143,0c-3.905,3.905-3.905,10.237,0,14.143l22.712,22.712c1.876,1.875,4.419,2.929,7.071,2.929
	s5.196-1.054,7.071-2.929l22.711-22.712c3.905-3.905,3.905-10.237,0-14.143C112.588,468.313,106.258,468.313,102.352,472.217z"/>
<path d="M432.348,348.861c-3.904-3.903-10.234-3.904-14.143,0l-22.712,22.711c-3.905,3.905-3.905,10.237,0,14.143
	c3.906,3.904,10.236,3.905,14.143,0l5.641-5.641v75.891c0,5.522,4.478,10,10,10s10-4.478,10-10v-75.89l5.64,5.64
	c1.953,1.952,4.512,2.929,7.071,2.929s5.118-0.977,7.071-2.929c3.905-3.905,3.905-10.237,0-14.143L432.348,348.861z"/>
<path d="M154.014,142.288c0.682,0.14,1.359,0.208,2.029,0.208c4.645,0,8.81-3.255,9.783-7.984
	C174.2,93.877,210.441,64.385,252,64.385c5.522,0,10-4.477,10-10s-4.478-10-10-10c-51.003,0-95.482,36.206-105.762,86.09
	C145.123,135.884,148.604,141.173,154.014,142.288z"/>
<path d="M86.71,392.92c2.63,0,5.21-1.07,7.069-2.94c1.87-1.859,2.931-4.43,2.931-7.06c0-2.64-1.061-5.21-2.931-7.08
	c-1.859-1.86-4.43-2.92-7.069-2.92c-2.63,0-5.21,1.06-7.07,2.92s-2.93,4.44-2.93,7.08c0,2.63,1.069,5.2,2.93,7.06
	C81.5,391.85,84.08,392.92,86.71,392.92z"/>
<path d="M194.617,308.95h41c5.522,0,10-4.478,10-10s-4.478-10-10-10h-41c-5.522,0-10,4.478-10,10S189.095,308.95,194.617,308.95z"/>
<path d="M276.466,308.95h40.917c5.522,0,10-4.478,10-10s-4.478-10-10-10h-40.917c-5.522,0-10,4.478-10,10
	S270.943,308.95,276.466,308.95z"/>
<path d="M317.381,384.942l-122.766,0.021c-5.522,0.001-9.999,4.479-9.998,10.002c0.001,5.522,4.479,9.999,10.002,9.998
	l122.766-0.021c5.522-0.001,9.999-4.479,9.998-10.002C327.382,389.418,322.904,384.941,317.381,384.942z"/>
<path d="M317.383,336.948H194.617c-5.522,0-10,4.478-10,10s4.478,10,10,10h122.766c5.522,0,10-4.478,10-10
	S322.905,336.948,317.383,336.948z"/>
<g>
</g>
<g>
</g>
<g>
</g>
<g>
</g>
<g>
</g>
<g>
</g>
<g>
</g>
<g>
</g>
<g>
</g>
<g>
</g>
<g>
</g>
<g>
</g>
<g>
</g>
<g>
</g>
<g>
</g>
</svg>
