<?xml version="1.0" encoding="iso-8859-1"?>
<!-- Generator: Adobe Illustrator 19.0.0, SVG Export Plug-In . SVG Version: 6.00 Build 0)  -->
<svg version="1.1" id="Capa_1" xmlns="http://www.w3.org/2000/svg" xmlns:xlink="http://www.w3.org/1999/xlink" x="0px" y="0px"
	 viewBox="0 0 512 512" style="enable-background:new 0 0 512 512;" xml:space="preserve">
<path style="fill:#49bab6;" d="M401.655,292.132l30.352-4.832l-0.026-62.734l-30.366-4.811l-17.079-41.189l18.051-24.887
	l-44.375-44.344l-24.865,18.064l-41.214-17.053L287.3,79.993l-31.301,0.013v100.562c41.66,0,75.431,33.772,75.431,75.431
	c0,41.66-33.772,75.431-75.431,75.431v100.562l31.435-0.013l4.811-30.365l41.189-17.079l24.887,18.051l44.344-44.375l-18.064-24.865
	L401.655,292.132z"/>
<g>
	<rect x="10" y="454" style="fill:#FEB12B;" width="48" height="48"/>
	<rect x="454" y="454" style="fill:#FEB12B;" width="48" height="48"/>
	<rect x="10" y="10" style="fill:#FEB12B;" width="48" height="48"/>
	<rect x="454" y="10" style="fill:#FEB12B;" width="48" height="48"/>
</g>
<path style="fill:#FEC96B;" d="M152.127,118.597v-32c0-6.312,5.117-11.429,11.429-11.429h41.143c6.312,0,11.429,5.117,11.429,11.429
	V358.85h-64V250.286V118.597H152.127z"/>
<path style="fill:#FF5D5D;" d="M204.698,75.168h-41.143c-6.312,0-11.429,5.117-11.429,11.429v50.286h64V86.597
	C216.127,80.285,211.01,75.168,204.698,75.168z"/>
<polygon style="fill:#A8E7FF;" points="216.127,358.85 184.127,431.993 152.127,358.85 "/>
<path d="M433.545,214.689l-24.837-3.935l-12.791-30.847l14.765-20.356c2.888-3.98,2.452-9.469-1.026-12.945l-44.375-44.344
	c-3.479-3.477-8.97-3.907-12.945-1.017l-20.337,14.773l-30.87-12.773l-3.952-24.824c-0.773-4.854-4.96-8.427-9.876-8.427H256
	c-5.522,0-10,4.477-10,10s4.478,10,10,10h22.768l3.49,21.924c0.547,3.435,2.839,6.338,6.053,7.668l41.214,17.053
	c3.214,1.329,6.888,0.894,9.7-1.15l17.959-13.045l32.297,32.275l-13.039,17.977c-2.042,2.815-2.475,6.489-1.143,9.702l17.08,41.188
	c1.332,3.212,4.237,5.502,7.673,6.046l21.934,3.475l0.019,45.66l-21.92,3.49c-3.435,0.547-6.338,2.839-7.668,6.053l-17.054,41.214
	c-1.33,3.213-0.895,6.887,1.149,9.7l13.046,17.958l-32.274,32.297l-17.978-13.038c-2.815-2.042-6.489-2.475-9.701-1.143
	l-41.188,17.079c-3.213,1.332-5.503,4.238-6.047,7.673l-3.476,21.943H256c-5.522,0-10,4.478-10,10s4.478,10,10,10h31.435
	c4.919,0,9.107-3.577,9.877-8.436l3.936-24.851l30.848-12.791l20.356,14.765c3.979,2.887,9.469,2.453,12.944-1.026l44.344-44.374
	c3.477-3.479,3.907-8.968,1.018-12.945l-14.774-20.337l12.774-30.87l24.823-3.952c4.856-0.773,8.43-4.963,8.428-9.88l-0.026-62.734
	C441.979,219.645,438.402,215.458,433.545,214.689z"/>
<path d="M245.999,331.432c0,5.522,4.478,10,10,10c0.128,0,0.334-0.004,0.463-0.009c5.519-0.212,9.82-4.857,9.607-10.377
	c-0.209-5.446-4.751-9.677-10.161-9.614C250.427,321.48,245.999,325.939,245.999,331.432z"/>
<path d="M286.474,313.919c-4.885,2.576-6.757,8.625-4.18,13.51c1.791,3.397,5.262,5.337,8.854,5.337
	c1.572,0,3.169-0.372,4.656-1.157c28.144-14.844,45.627-43.815,45.627-75.608c0-47.107-38.324-85.432-85.432-85.432
	c-5.522,0-10,4.477-10,10s4.478,10,10,10c36.079,0,65.432,29.353,65.432,65.432C321.431,280.353,308.036,302.546,286.474,313.919z"
	/>
<path d="M58,444H10c-5.522,0-10,4.478-10,10v48c0,5.522,4.478,10,10,10h48c5.522,0,10-4.478,10-10v-48C68,448.478,63.522,444,58,444
	z M48,492H20v-28h28V492z"/>
<path d="M502,444h-48c-5.522,0-10,4.478-10,10v48c0,5.522,4.478,10,10,10h48c5.522,0,10-4.478,10-10v-48
	C512,448.478,507.522,444,502,444z M492,492h-28v-28h28V492z"/>
<path d="M58,0H10C4.478,0,0,4.477,0,10v48c0,5.523,4.478,10,10,10h48c5.522,0,10-4.477,10-10V10C68,4.477,63.522,0,58,0z M48,48H20
	V20h28V48z"/>
<path d="M502,0h-48c-5.522,0-10,4.477-10,10v48c0,5.523,4.478,10,10,10h48c5.522,0,10-4.477,10-10V10C512,4.477,507.522,0,502,0z
	 M492,48h-28V20h28V48z"/>
<path d="M468,407.571c0,5.522,4.478,10,10,10s10-4.478,10-10v-10c0-5.522-4.478-10-10-10s-10,4.478-10,10V407.571z"/>
<path d="M468,357.571c0,5.522,4.478,10,10,10s10-4.478,10-10v-10c0-5.522-4.478-10-10-10s-10,4.478-10,10V357.571z"/>
<path d="M478,117.571c5.522,0,10-4.477,10-10v-1.546c0-5.523-4.478-10-10-10s-10,4.477-10,10v1.546
	C468,113.094,472.478,117.571,478,117.571z"/>
<path d="M468,307.571c0,5.522,4.478,10,10,10s10-4.478,10-10v-10c0-5.522-4.478-10-10-10s-10,4.478-10,10V307.571z"/>
<path d="M468,157.571c0,5.523,4.478,10,10,10s10-4.477,10-10v-10c0-5.523-4.478-10-10-10s-10,4.477-10,10V157.571z"/>
<path d="M468,257.571c0,5.522,4.478,10,10,10s10-4.478,10-10v-10c0-5.523-4.478-10-10-10s-10,4.477-10,10V257.571z"/>
<path d="M468,207.571c0,5.523,4.478,10,10,10s10-4.477,10-10v-10c0-5.523-4.478-10-10-10s-10,4.477-10,10V207.571z"/>
<path d="M24,257.571c0,5.522,4.478,10,10,10s10-4.478,10-10v-10c0-5.523-4.478-10-10-10s-10,4.477-10,10V257.571z"/>
<path d="M24,307.571c0,5.522,4.478,10,10,10s10-4.478,10-10v-10c0-5.522-4.478-10-10-10s-10,4.478-10,10V307.571z"/>
<path d="M34,117.571c5.522,0,10-4.477,10-10v-1.546c0-5.523-4.478-10-10-10s-10,4.477-10,10v1.546
	C24,113.094,28.478,117.571,34,117.571z"/>
<path d="M24,207.571c0,5.523,4.478,10,10,10s10-4.477,10-10v-10c0-5.523-4.478-10-10-10s-10,4.477-10,10V207.571z"/>
<path d="M24,357.571c0,5.522,4.478,10,10,10s10-4.478,10-10v-10c0-5.522-4.478-10-10-10s-10,4.478-10,10V357.571z"/>
<path d="M24,157.571c0,5.523,4.478,10,10,10s10-4.477,10-10v-10c0-5.523-4.478-10-10-10s-10,4.477-10,10V157.571z"/>
<path d="M24,407.571c0,5.522,4.478,10,10,10s10-4.478,10-10v-10c0-5.522-4.478-10-10-10s-10,4.478-10,10V407.571z"/>
<path d="M315.228,468.798h-10c-5.522,0-10,4.478-10,10s4.478,10,10,10h10c5.522,0,10-4.478,10-10S320.75,468.798,315.228,468.798z"
	/>
<path d="M215.228,468.798h-10c-5.522,0-10,4.478-10,10s4.478,10,10,10h10c5.522,0,10-4.478,10-10S220.75,468.798,215.228,468.798z"
	/>
<path d="M265.228,468.798h-10c-5.522,0-10,4.478-10,10s4.478,10,10,10h10c5.522,0,10-4.478,10-10S270.75,468.798,265.228,468.798z"
	/>
<path d="M165.228,468.798h-10c-5.522,0-10,4.478-10,10s4.478,10,10,10h10c5.522,0,10-4.478,10-10S170.75,468.798,165.228,468.798z"
	/>
<path d="M365.228,468.798h-10c-5.522,0-10,4.478-10,10s4.478,10,10,10h10c5.522,0,10-4.478,10-10S370.75,468.798,365.228,468.798z"
	/>
<path d="M115.228,468.798h-10c-5.522,0-10,4.478-10,10s4.478,10,10,10h10c5.522,0,10-4.478,10-10S120.75,468.798,115.228,468.798z"
	/>
<path d="M406.772,468.798h-1.545c-5.522,0-10,4.478-10,10s4.478,10,10,10h1.545c5.522,0,10-4.478,10-10
	S412.295,468.798,406.772,468.798z"/>
<path d="M305.228,44.798h10c5.522,0,10-4.477,10-10s-4.478-10-10-10h-10c-5.522,0-10,4.477-10,10S299.705,44.798,305.228,44.798z"/>
<path d="M255.228,44.798h10c5.522,0,10-4.477,10-10s-4.478-10-10-10h-10c-5.522,0-10,4.477-10,10S249.705,44.798,255.228,44.798z"/>
<path d="M405.228,44.798h1.545c5.522,0,10-4.477,10-10s-4.478-10-10-10h-1.545c-5.522,0-10,4.477-10,10
	S399.705,44.798,405.228,44.798z"/>
<path d="M355.228,44.798h10c5.522,0,10-4.477,10-10s-4.478-10-10-10h-10c-5.522,0-10,4.477-10,10S349.705,44.798,355.228,44.798z"/>
<path d="M205.228,44.798h10c5.522,0,10-4.477,10-10s-4.478-10-10-10h-10c-5.522,0-10,4.477-10,10S199.705,44.798,205.228,44.798z"/>
<path d="M155.228,44.798h10c5.522,0,10-4.477,10-10s-4.478-10-10-10h-10c-5.522,0-10,4.477-10,10S149.705,44.798,155.228,44.798z"/>
<path d="M115.228,24.798h-10c-5.522,0-10,4.477-10,10s4.478,10,10,10h10c5.522,0,10-4.477,10-10S120.75,24.798,115.228,24.798z"/>
<path d="M152.13,235c2.63,0,5.21-1.07,7.07-2.93c1.859-1.86,2.93-4.44,2.93-7.07s-1.07-5.21-2.93-7.07
	c-1.86-1.86-4.44-2.93-7.07-2.93c-2.64,0-5.21,1.07-7.07,2.93c-1.87,1.86-2.93,4.43-2.93,7.07c0,2.63,1.06,5.21,2.93,7.07
	C146.92,233.93,149.49,235,152.13,235z"/>
<path d="M204.698,65.168h-41.143c-11.815,0-21.429,9.613-21.429,21.429v103.737c0,5.523,4.478,10,10,10s10-4.477,10-10v-43.451h44
	v201.968h-44V264c0-5.522-4.478-10-10-10s-10,4.478-10,10v94.851c0,1.38,0.285,2.744,0.839,4.008l32,73.143
	c1.592,3.641,5.188,5.992,9.161,5.992s7.569-2.352,9.161-5.992l32-73.143c0.554-1.264,0.839-2.628,0.839-4.008V86.597
	C226.127,74.781,216.514,65.168,204.698,65.168z M162.127,126.882V86.597c0-0.788,0.641-1.429,1.429-1.429h41.143
	c0.788,0,1.429,0.641,1.429,1.429v40.286L162.127,126.882L162.127,126.882z M184.127,407.044l-16.71-38.193h33.419L184.127,407.044z
	"/>
<g>
</g>
<g>
</g>
<g>
</g>
<g>
</g>
<g>
</g>
<g>
</g>
<g>
</g>
<g>
</g>
<g>
</g>
<g>
</g>
<g>
</g>
<g>
</g>
<g>
</g>
<g>
</g>
<g>
</g>
</svg>
